<svg width="256" height="256" viewBox="0 0 256 256" fill="none" xmlns="http://www.w3.org/2000/svg">
<path d="M90.382 44H67.5774C66.0025 44 64.5969 44.983 64.0566 46.4594L4.11501 210.488C3.6693 211.709 4.57441 213 5.87543 213H28.68C30.2549 213 31.6605 212.017 32.2009 210.542L92.1424 46.5116C92.5881 45.2912 91.683 44 90.382 44ZM118.119 112.729C117.52 111.09 115.198 111.09 114.598 112.729L102.776 145.086C102.473 145.914 102.473 146.822 102.776 147.65L125.759 210.541C126.298 212.017 127.704 212.999 129.279 212.999H152.084C153.385 212.999 154.29 211.708 153.844 210.487L118.119 112.729ZM176.254 144.4C176.853 146.039 179.175 146.039 179.774 144.4L215.545 46.5116C215.991 45.2912 215.086 44 213.785 44H190.98C189.405 44 188 44.9818 187.459 46.4594L164.431 109.478C164.128 110.306 164.128 111.213 164.431 112.041L176.254 144.4ZM131.29 46.442C130.756 44.9756 129.359 44 127.797 44H104.915C103.341 44 101.936 44.9818 101.395 46.4582L41.4549 210.488C41.0092 211.709 41.9143 213 43.2153 213H66.0212C67.5961 213 69.0017 212.018 69.542 210.542L115.435 84.9513C115.736 84.1274 116.903 84.1274 117.203 84.9513L163.097 210.542C163.636 212.018 165.043 213 166.618 213H189.424C190.725 213 191.63 211.709 191.184 210.49L131.29 46.442ZM251.125 44H228.317C226.744 44 225.337 44.9818 224.798 46.4582L183.099 160.568C182.797 161.396 182.797 162.303 183.099 163.131L194.924 195.49C195.523 197.129 197.845 197.129 198.444 195.49L239.722 82.5317L252.885 46.5104C253.331 45.2912 252.426 44 251.125 44Z" fill="#EF8220"/>
</svg>
